<svg width="192" height="192" viewBox="0 0 192 192" fill="none" xmlns="http://www.w3.org/2000/svg">
  <rect width="192" height="192" rx="40" fill="#3b82f6"/>
  <path d="M96 48C116.987 48 134 65.013 134 86C134 106.987 116.987 124 96 124C75.013 124 58 106.987 58 86C58 65.013 75.013 48 96 48Z" fill="white" fill-opacity="0.9"/>
  <path d="M96 58C111.464 58 124 70.536 124 86C124 101.464 111.464 114 96 114C80.536 114 68 101.464 68 86C68 70.536 80.536 58 96 58Z" fill="#3b82f6"/>
  <path d="M95 76H97V96H95V76Z" fill="white"/>
  <path d="M86 86H106V88H86V86Z" fill="white"/>
  <path d="M48 144H144M64 144V134C64 130.686 66.686 128 70 128H122C125.314 128 128 130.686 128 134V144" stroke="white" stroke-width="4" stroke-linecap="round"/>
</svg>
